<?xml version="1.0" encoding="UTF-8" standalone="no"?>
<!-- Created with Inkscape (http://www.inkscape.org/) -->

<svg
   width="100"
   height="100"
   viewBox="0 0 26.458333 26.458333"
   version="1.1"
   id="svg5"
   xml:space="preserve"
   sodipodi:docname="filter.svg"
   inkscape:version="1.2.2 (732a01da63, 2022-12-09)"
   xmlns:inkscape="http://www.inkscape.org/namespaces/inkscape"
   xmlns:sodipodi="http://sodipodi.sourceforge.net/DTD/sodipodi-0.dtd"
   xmlns="http://www.w3.org/2000/svg"
   xmlns:svg="http://www.w3.org/2000/svg"><sodipodi:namedview
     id="namedview7"
     pagecolor="#505050"
     bordercolor="#ffffff"
     borderopacity="1"
     inkscape:showpageshadow="0"
     inkscape:pageopacity="0"
     inkscape:pagecheckerboard="1"
     inkscape:deskcolor="#505050"
     inkscape:document-units="mm"
     showgrid="false"
     inkscape:zoom="0.52724989"
     inkscape:cx="280.70182"
     inkscape:cy="610.71611"
     inkscape:window-width="1920"
     inkscape:window-height="1017"
     inkscape:window-x="-8"
     inkscape:window-y="-8"
     inkscape:window-maximized="1"
     inkscape:current-layer="layer1" /><defs
     id="defs2" /><g
     inkscape:label="Шар 1"
     inkscape:groupmode="layer"
     id="layer1"><path
       style="fill:#000000;stroke-width:0.0405435"
       d="m 10.653956,26.453779 c -1.2092704,-0.0895 -2.1589204,-0.62122 -2.8451904,-1.59295 -0.10236,-0.14495 -0.24558,-0.39504 -0.31827,-0.55576 l -0.13217,-0.29223 -2.07205,-0.0118 -2.07205,-0.0119 -0.19203,-0.0954 c -0.25608,-0.12727 -0.49368,-0.36423 -0.6037,-0.60211 -0.0687,-0.14856 -0.0902,-0.27094 -0.091,-0.51877 -9.2e-4,-0.28286 0.014,-0.35215 0.11719,-0.54162 0.11854,-0.21773 0.33645,-0.43516 0.56589,-0.56464 0.1098,-0.062 0.34202,-0.0713 2.22648,-0.0896 l 2.10389,-0.0204 0.18682,-0.3651 c 0.24542,-0.47962 0.3857,-0.67633 0.71844,-1.00743 0.71851,-0.71499 1.55753,-1.05856 2.5699604,-1.05238 0.63784,0.004 0.91471,0.0641 1.49827,0.32568 0.58071,0.26031 1.19268,0.78455 1.51463,1.29748 0.17128,0.2729 0.31166,0.53987 0.31166,0.59272 0,0.0284 0.0259,0.087 0.0575,0.13033 0.0562,0.0769 0.16241,0.0792 4.59155,0.099 4.18059,0.0187 4.54358,0.0257 4.65661,0.0896 0.22978,0.12997 0.44741,0.34719 0.56589,0.5648 0.10274,0.18872 0.11828,0.25989 0.11823,0.54162 -8e-5,0.52927 -0.20486,0.86378 -0.67844,1.10824 l -0.20936,0.10806 -4.49892,0.0203 -4.49893,0.0203 -0.18425,0.36489 c -0.22978,0.45505 -0.44034,0.74021 -0.78327,1.06077 -0.55903,0.52255 -1.16997,0.82904 -1.87333,0.93979 -0.35228,0.0555 -0.56663,0.0722 -0.75006,0.0587 z m 8.04789,-9.58474 c -0.84465,-0.0844 -1.60478,-0.44594 -2.21169,-1.05186 -0.24718,-0.24677 -0.62933,-0.80471 -0.74811,-1.09223 -0.0414,-0.10035 -0.10292,-0.20525 -0.13659,-0.23313 -0.0484,-0.04 -1.34248,-0.0508 -6.1654204,-0.0513 -6.38437,-6.1e-4 -6.23228,0.003 -6.55428,-0.17058 -0.16869,-0.0911 -0.37413,-0.33102 -0.47655,-0.55652 -0.11927,-0.26261 -0.11544,-0.76591 0.008,-1.00439 0.11492,-0.22265 0.31105,-0.44404 0.4689,-0.5293 0.322,-0.1739 0.16991,-0.16994 6.55428,-0.17059 4.8229304,-4.9e-4 6.1170404,-0.0113 6.1654104,-0.0513 0.0337,-0.0279 0.0953,-0.13278 0.13705,-0.23312 0.12543,-0.3018 0.48622,-0.83119 0.73735,-1.08193 0.62044,-0.61947 1.38681,-0.9845305 2.222,-1.0584405 1.14736,-0.10155 2.21306,0.29317 2.96668,1.0987805 0.37684,0.40285 0.58728,0.7204 0.74398,1.12268 0.0304,0.0781 0.0746,0.1553 0.0981,0.17169 0.0236,0.0164 0.17056,0.0303 0.32665,0.031 0.58154,0.002 0.95343,0.21903 1.20329,0.7005 0.12707,0.24488 0.12707,0.78673 0,1.03161 -0.24791,0.47771 -0.62341,0.6986 -1.18983,0.69989 -0.28687,6.1e-4 -0.39862,0.0255 -0.39862,0.0885 0,0.0213 -0.0489,0.14249 -0.10875,0.26933 -0.5271,1.11779 -1.70097,1.9673 -2.84078,2.05582 -0.17282,0.0134 -0.35071,0.0295 -0.39531,0.0358 -0.0446,0.006 -0.22704,-0.003 -0.40543,-0.021 z M 7.0455856,7.3219185 c -0.84635,-0.0949 -1.61207,-0.46289 -2.19956,-1.05719 -0.34169,-0.34565 -0.5064,-0.57636 -0.72159,-1.01076 -0.18806,-0.37962 -0.16442,-0.3656 -0.66695,-0.39555 -0.17839,-0.0106 -0.37951,-0.0475 -0.44694,-0.0819 -0.21702,-0.1108 -0.44454,-0.33516 -0.56589,-0.55805 -0.10302,-0.18923 -0.11818,-0.25912 -0.11752,-0.54161 9.2e-4,-0.39281 0.0919,-0.62648 0.33635,-0.86369 0.2579,-0.25028 0.48745,-0.34022 0.92893,-0.36395 0.3625,-0.0195 0.37983,-0.0247 0.41767,-0.12613 0.15291,-0.40981 0.53852,-0.9867 0.87329,-1.30645 0.68806,-0.65720996 1.58933,-1.01965996 2.5281,-1.016689959981 0.45575,0.001 0.97866,0.09979999998 1.31667,0.247769999981 0.0446,0.0195 0.15406,0.0675 0.24326,0.10664 0.65359,0.28677 1.4557804,1.11608996 1.7431504,1.80210996 0.042,0.10035 0.0932,0.20497 0.11372,0.2325 0.0292,0.0392 1.37405,0.0524 6.22586,0.0608 l 6.18858,0.0108 0.22148,0.11415 c 0.46167,0.23795 0.66437,0.5736 0.66561,1.10215 6.1e-4,0.28249 -0.0145,0.35239 -0.11752,0.54162 -0.11848,0.21761 -0.33611,0.43483 -0.56589,0.5648 -0.11375,0.0643 -0.57119,0.0708 -6.34602,0.0896 -3.42289,0.0112 -6.24623,0.035 -6.27411,0.0531 -0.0279,0.018 -0.0507,0.0565 -0.0507,0.0855 0,0.0636 -0.2028,0.44964 -0.39179,0.74572 -0.17514,0.2744 -0.6052804,0.70323 -0.9534104,0.95052 -0.14894,0.10579 -0.28071,0.19235 -0.29283,0.19235 -0.0121,0 -0.11832,0.0431 -0.236,0.0957 -0.35268,0.1578 -0.42563,0.18368 -0.69027,0.24492 -0.26804,0.062 -0.92721,0.10795 -1.1657,0.0812 z"
       id="path882" /></g></svg>
