<?xml version="1.0" encoding="UTF-8" standalone="no"?>
<!-- Created with Inkscape (http://www.inkscape.org/) -->

<svg
   width="100"
   height="100"
   viewBox="0 0 26.458333 26.458333"
   version="1.1"
   id="svg5"
   xml:space="preserve"
   sodipodi:docname="reset.svg"
   inkscape:version="1.2.2 (732a01da63, 2022-12-09)"
   xmlns:inkscape="http://www.inkscape.org/namespaces/inkscape"
   xmlns:sodipodi="http://sodipodi.sourceforge.net/DTD/sodipodi-0.dtd"
   xmlns="http://www.w3.org/2000/svg"
   xmlns:svg="http://www.w3.org/2000/svg"><sodipodi:namedview
     id="namedview7"
     pagecolor="#505050"
     bordercolor="#ffffff"
     borderopacity="1"
     inkscape:showpageshadow="0"
     inkscape:pageopacity="0"
     inkscape:pagecheckerboard="1"
     inkscape:deskcolor="#505050"
     inkscape:document-units="mm"
     showgrid="false"
     inkscape:zoom="0.52724989"
     inkscape:cx="280.70182"
     inkscape:cy="610.71611"
     inkscape:window-width="1920"
     inkscape:window-height="1017"
     inkscape:window-x="-8"
     inkscape:window-y="-8"
     inkscape:window-maximized="1"
     inkscape:current-layer="layer1" /><defs
     id="defs2" /><g
     inkscape:label="Шар 1"
     inkscape:groupmode="layer"
     id="layer1"><path
       style="fill:#000000;stroke-width:0.0389225"
       d="m 12.519337,26.401506 c -1.57698,-0.15752 -2.9425703,-0.53549 -4.3204003,-1.19581 -2.65998,-1.27478 -4.82414,-3.41651 -6.06662,-6.00376 -0.32231,-0.67116 -0.4502,-0.98017 -0.66046,-1.59582 -0.50037995,-1.46511 -0.76011995,-3.32329 -0.66871995,-4.78398 0.0854,-1.36403 0.26373995,-2.33251 0.64588995,-3.5065196 0.20631,-0.63381 0.32141,-0.90765 0.71981,-1.71259 0.36303,-0.73345 0.41314,-0.82135 0.83216,-1.45959 1.08631,-1.65462 2.65413,-3.11789 4.3957,-4.10256 0.32782,-0.18535 1.09252,-0.56814 1.13497,-0.56814 0.0101,0 0.10143,-0.0368 0.20288,-0.0817 0.219,-0.097 0.28517,-0.12401 0.51139,-0.20859 0.35744,-0.13362 1.2928203,-0.41547995 1.5413503,-0.46443995 0.0642,-0.0127 0.20434,-0.0414 0.31138,-0.064 0.91273,-0.19219 1.53762,-0.25174 2.62727,-0.2504 1.17245,0.001 1.79325,0.0708 2.95811,0.33044 1.38712,0.30916995 3.08673,1.08026995 4.38846,1.99099995 0.25074,0.17542 0.34041,0.2192 0.3922,0.19148 0.0369,-0.0198 0.55713,-0.53282 1.156,-1.14012 1.16829,-1.18473995 1.50374,-1.48593995 1.83575,-1.64837995 0.67829,-0.33186 1.04191,-0.0238 1.16183,0.98444995 0.0438,0.36814 0.0545,1.3858 0.055,5.20613 2.9e-4,2.6117 -0.0136,4.7709996 -0.031,4.7984496 -0.0256,0.0403 -1.01003,0.0473 -5.10798,0.0364 -5.59111,-0.0149 -5.29879,-0.002 -5.66016,-0.25266 -0.51096,-0.35466 -0.3282,-0.9462096 0.58592,-1.8965196 0.18533,-0.19266 0.69817,-0.71351 1.13964,-1.15742 0.89763,-0.9026 0.86093,-0.82291 0.47356,-1.02855 -0.65209,-0.34617 -1.50265,-0.61759 -2.37427,-0.75767 -0.37776,-0.0607 -1.60926,-0.0605 -1.98505,3e-4 -1.06298,0.1721 -1.90981,0.46965 -2.7634903,0.97101 -0.24566,0.14427 -0.82976,0.55404 -0.89522,0.62804 -0.0107,0.0121 -0.13904,0.12578 -0.28518,0.25262 -0.43055,0.37367 -1.07962,1.16606 -1.38877,1.6954 -0.5696,0.9752896 -0.86784,1.9119696 -1.01069,3.1743296 -0.0544,0.48109 -0.0491,0.84644 0.0204,1.39858 0.10972,0.87139 0.22717,1.35828 0.48354,2.00451 0.7794,1.9646 2.39697,3.5328 4.3743003,4.24082 0.97928,0.35064 2.21414,0.50365 3.13877,0.38893 0.70696,-0.0877 1.5937,-0.30465 2.04343,-0.4999 0.36121,-0.15682 0.81872,-0.38724 1.06546,-0.53659 0.71923,-0.43535 1.53069,-1.17121 2.0572,-1.86553 0.32684,-0.431 0.66118,-0.72346 1.03874,-0.9086 0.46356,-0.22731 0.74291,-0.29178 1.26829,-0.29272 0.38635,-7.4e-4 0.49311,0.0141 0.78003,0.1081 0.88514,0.28998 1.48305,0.86497 1.82934,1.75922 0.14229,0.36743 0.18654,1.22758 0.0811,1.57656 -0.0835,0.27651 -0.20823,0.59118 -0.29298,0.73933 -0.24295,0.4247 -0.84834,1.14503 -1.53747,1.82936 -1.20649,1.19809 -2.34225,1.96715 -3.99328,2.70397 -0.91989,0.41053 -2.25766,0.77724 -3.32787,0.91225 -1.06045,0.13377 -1.96005,0.15278 -2.88027,0.0609 z"
       id="path880" /></g></svg>
