<?xml version="1.0" encoding="UTF-8" standalone="no"?>
<!-- Created with Inkscape (http://www.inkscape.org/) -->

<svg
   width="100"
   height="100"
   viewBox="0 0 26.458333 26.458333"
   version="1.1"
   id="svg5"
   xml:space="preserve"
   inkscape:version="1.2.2 (732a01da63, 2022-12-09)"
   sodipodi:docname="sort-az.svg"
   xmlns:inkscape="http://www.inkscape.org/namespaces/inkscape"
   xmlns:sodipodi="http://sodipodi.sourceforge.net/DTD/sodipodi-0.dtd"
   xmlns="http://www.w3.org/2000/svg"
   xmlns:svg="http://www.w3.org/2000/svg"><sodipodi:namedview
     id="namedview7"
     pagecolor="#505050"
     bordercolor="#ffffff"
     borderopacity="1"
     inkscape:showpageshadow="0"
     inkscape:pageopacity="0"
     inkscape:pagecheckerboard="1"
     inkscape:deskcolor="#505050"
     inkscape:document-units="mm"
     showgrid="false"
     inkscape:zoom="4"
     inkscape:cx="6"
     inkscape:cy="73.75"
     inkscape:window-width="1920"
     inkscape:window-height="1017"
     inkscape:window-x="-8"
     inkscape:window-y="-8"
     inkscape:window-maximized="1"
     inkscape:current-layer="layer1" /><defs
     id="defs2" /><g
     inkscape:label="Шар 1"
     inkscape:groupmode="layer"
     id="layer1"><path
       style="fill:#000000;stroke-width:0.0360467"
       d="m 7.2597771,17.349442 c -0.05952,-0.0157 -0.06347,-0.31298 -0.07209,-5.43 l -0.0091,-5.413411 -1.141533,-0.018 c -0.627842,-0.01 -1.150827,-0.0274 -1.162187,-0.0387 -0.01905,-0.0191 1.033978,-1.50243 1.725413,-2.43047 0.162482,-0.21809 0.64692,-0.88315 1.076532,-1.47792 1.779988,-2.46429006 1.837342,-2.54130006083 1.892643,-2.54130006083 0.03531,0 0.288239,0.33840000083 1.3645719,1.82569006083 0.432551,0.59771 1.183871,1.63291 1.669602,2.30044 0.48573,0.66754 0.939919,1.29237 1.00931,1.38851 0.06939,0.0961 0.245789,0.33903 0.391999,0.53975 0.14621,0.20073 0.254373,0.37645 0.240364,0.39048 -0.01401,0.014 -0.539162,0.0336 -1.167006,0.0435 l -1.141533,0.018 -0.01802,5.425041 -0.01802,5.42504 -2.2889709,0.005 c -1.258934,0.003 -2.317305,-0.003 -2.351936,-0.0116 z"
       id="path884-9"
       sodipodi:nodetypes="cccccccscccccscccccc" /><path
       style="fill:#ff0000;stroke-width:0.0360467"
       d="m 16.434967,25.872382 c -0.23326,-0.32217 -0.542578,-0.74797 -0.687376,-0.94622 -0.144796,-0.19826 -0.721329,-0.9909 -1.281183,-1.76143 -0.559854,-0.77053 -1.297094,-1.78434 -1.638311,-2.25292 -0.341217,-0.46858 -0.621029,-0.86414 -0.621806,-0.87901 -7.58e-4,-0.0148 0.508592,-0.027 1.131932,-0.027 0.867093,0 1.140198,-0.0106 1.16251,-0.045 0.01604,-0.0248 0.03727,-2.47822 0.04719,-5.45208 l 0.01802,-5.4070203 2.270948,-0.01 c 1.249021,-0.006 2.307445,-10e-4 2.352052,0.01 l 0.08111,0.0196 v 5.3726603 c 0,3.63457 0.01207,5.39521 0.03731,5.44238 0.03565,0.0666 0.08678,0.0697 1.147488,0.0697 0.610596,0 1.119325,0.009 1.130509,0.0204 0.01921,0.0192 -0.446394,0.6705 -2.234957,3.12632 -0.421708,0.57904 -0.806946,1.10956 -0.856082,1.17895 -0.04914,0.0694 -0.150182,0.2091 -0.224543,0.31047 -0.07436,0.10137 -0.401416,0.5515 -0.726785,1.0003 -0.325369,0.4488 -0.612357,0.81599 -0.63775,0.81599 -0.02539,0 -0.237016,-0.26359 -0.470275,-0.58576 z"
       id="path884"
       sodipodi:nodetypes="ccsscsccccccscscssssscc" /></g></svg>
